<?xml version="1.0" standalone="no"?>
<!DOCTYPE svg PUBLIC "-//W3C//DTD SVG 20010904//EN"
 "http://www.w3.org/TR/2001/REC-SVG-20010904/DTD/svg10.dtd">
<svg version="1.0" xmlns="http://www.w3.org/2000/svg"
 width="224.000000pt" height="225.000000pt" viewBox="0 0 224.000000 225.000000"
 preserveAspectRatio="xMidYMid meet">
<metadata>
Created by potrace 1.16, written by Peter Selinger 2001-2019
</metadata>
<g transform="translate(0.000000,225.000000) scale(0.100000,-0.100000)"
fill="#000000" stroke="none">
<path d="M555 2016 c-186 -117 -261 -198 -384 -415 -47 -83 -89 -214 -96 -300
l-5 -56 14 65 c55 252 202 501 371 625 22 16 43 33 46 38 4 5 9 5 12 0 4 -6
-12 -25 -35 -44 -74 -61 -129 -122 -187 -211 -65 -98 -137 -238 -145 -283 -5
-29 -5 -29 5 -5 25 58 122 244 153 293 43 66 136 163 202 207 27 19 51 37 54
40 3 4 24 19 48 34 23 14 42 29 42 31 0 6 -78 -42 -102 -62 -10 -9 -18 -11
-22 -4 -4 5 17 26 46 46 65 43 52 45 -17 1z"/>
<path d="M1113 1496 c-12 -13 -19 -27 -16 -30 4 -3 0 -6 -8 -6 -11 0 -11 -2 1
-10 13 -8 12 -10 -2 -10 -10 0 -18 -7 -18 -15 0 -8 8 -15 18 -16 9 0 1 -5 -18
-12 -50 -17 -39 -32 26 -35 61 -3 114 12 114 33 0 17 -20 54 -50 93 l-26 33
-21 -25z"/>
<path d="M1173 1346 c-40 -13 -61 -26 -58 -33 6 -18 -27 -16 -51 2 -13 10 -15
14 -5 15 8 0 11 3 8 6 -4 4 -13 1 -21 -5 -11 -9 -22 -9 -49 2 -33 14 -34 14
-30 -4 3 -11 10 -19 17 -18 23 3 51 -3 39 -8 -7 -2 -13 -9 -13 -14 0 -6 10 -5
22 2 17 9 23 9 26 0 2 -6 9 -8 15 -4 7 4 6 0 -1 -10 -12 -15 -11 -15 17 -7 19
5 29 5 26 -1 -4 -5 -13 -9 -21 -9 -8 0 -12 -5 -9 -10 4 -6 11 -8 16 -5 5 4 9
1 9 -4 0 -6 -8 -12 -17 -12 -10 -1 -4 -5 12 -9 22 -6 24 -8 9 -9 -32 -2 -88
20 -74 29 7 4 -6 7 -29 6 -39 -1 -41 -2 -41 -32 0 -30 3 -33 62 -53 79 -27 94
-26 172 6 l65 26 -1 89 c-1 101 4 98 -95 64z"/>
<path d="M1450 1090 c-15 -16 -31 -38 -34 -48 -4 -11 -23 -24 -49 -31 -55 -17
-87 -38 -87 -58 0 -12 6 -9 25 11 13 14 34 26 45 26 l21 0 -23 -42 c-14 -26
-33 -45 -48 -49 l-25 -7 26 -1 c26 -1 60 29 94 82 22 34 51 37 40 5 -34 -107
11 -135 60 -37 28 54 43 68 55 48 5 -7 0 -29 -12 -52 -25 -51 -13 -67 36 -49
28 10 39 10 55 0 16 -10 23 -9 38 4 15 14 20 14 31 2 17 -19 32 -17 60 6 22
18 22 21 8 49 -18 33 -21 71 -7 71 5 0 11 -10 14 -22 3 -20 4 -21 11 -5 12 26
-11 49 -35 36 -21 -11 -26 -58 -8 -90 13 -25 -4 -51 -28 -42 -10 4 -14 16 -11
39 5 43 -2 43 -23 1 -9 -17 -24 -34 -34 -36 -16 -3 -17 2 -12 35 4 22 16 47
28 57 12 9 16 17 10 17 -9 0 -9 5 -1 20 9 16 8 20 -5 20 -9 0 -14 -4 -10 -9 7
-12 -22 -41 -40 -41 -9 0 -12 -6 -9 -15 8 -21 -23 -85 -41 -85 -19 0 -19 12 0
57 23 55 20 66 -17 58 -25 -6 -30 -4 -25 8 9 24 -5 29 -20 8 -7 -11 -10 -26
-7 -34 8 -21 -33 -97 -52 -97 -21 0 -13 34 32 124 39 80 39 82 19 90 -10 3
-27 -6 -45 -24z"/>
<path d="M568 1098 c-7 -7 -20 -13 -28 -13 -8 0 -15 -4 -15 -10 0 -13 -47 -89
-57 -93 -4 -2 -8 -19 -8 -38 0 -65 59 -93 121 -57 26 16 31 16 39 3 7 -10 12
-11 18 -4 12 18 45 26 53 12 4 -7 24 -13 43 -14 30 -1 36 3 36 20 0 21 1 21
18 -1 12 -17 24 -21 42 -17 14 3 35 8 48 11 13 3 22 1 22 -6 0 -14 35 -14 62
0 14 8 23 8 31 0 19 -19 53 -12 66 13 11 19 10 28 -3 54 -20 40 -20 62 0 62
11 0 15 -6 11 -20 -3 -11 -1 -20 4 -20 14 0 10 47 -4 53 -35 13 -49 -34 -31
-106 6 -26 4 -28 -17 -25 -19 2 -24 8 -22 31 2 35 -8 34 -29 -3 -12 -21 -25
-30 -43 -30 -34 0 -31 11 11 39 27 19 34 30 32 50 -2 14 -10 27 -20 29 -19 4
-78 -50 -78 -71 0 -18 -32 -47 -52 -47 -30 0 -29 29 2 45 34 18 40 51 11 60
-17 5 -18 10 -9 36 11 31 5 59 -12 59 -6 0 -8 -11 -6 -25 5 -28 -12 -88 -23
-81 -4 3 -17 -18 -30 -45 -13 -27 -30 -49 -37 -49 -17 0 -17 -2 1 50 8 24 14
44 13 44 -2 1 -10 7 -19 14 -26 20 -63 -3 -90 -56 -18 -35 -32 -49 -57 -56
-28 -8 -37 -6 -54 11 -27 27 -19 75 22 132 35 48 74 63 95 35 8 -11 15 -14 15
-7 0 16 -28 43 -45 43 -7 0 -20 -6 -27 -12z"/>
<path d="M2090 939 c0 -11 -4 -18 -9 -14 -6 3 -13 -11 -17 -32 -4 -21 -15 -54
-25 -75 -32 -63 -67 -179 -61 -201 5 -20 4 -20 -11 -8 -14 11 -17 11 -17 0 0
-10 -3 -10 -12 -1 -9 9 -15 5 -28 -21 -21 -44 -67 -114 -80 -122 -6 -3 -8 -10
-6 -14 3 -4 -1 -8 -9 -8 -8 0 -15 4 -15 9 0 5 -5 6 -11 3 -6 -5 -4 -11 7 -19
13 -10 14 -15 4 -21 -9 -6 -11 -4 -5 5 5 9 4 11 -3 6 -7 -4 -12 -13 -12 -19 0
-14 -39 -41 -48 -32 -3 3 4 12 16 21 12 8 22 20 22 25 0 6 -21 -8 -47 -31
-102 -90 -256 -161 -420 -195 -93 -19 -289 -19 -371 0 -80 19 -219 73 -254 98
-15 11 -34 17 -43 13 -9 -3 -14 -2 -10 3 8 13 -52 54 -66 45 -7 -4 -9 -3 -6 3
4 6 -17 30 -46 53 -39 33 -45 36 -23 12 17 -18 25 -32 18 -32 -6 0 -14 4 -17
10 -3 5 -16 15 -28 22 -20 10 -21 10 -8 -6 16 -18 102 -81 111 -80 3 1 10 -6
16 -14 7 -9 16 -12 24 -7 8 5 11 4 7 -2 -7 -10 143 -93 167 -93 7 0 27 -7 44
-15 37 -19 148 -41 254 -50 49 -5 76 -11 75 -19 -3 -15 86 -10 138 9 22 7 56
16 76 20 49 7 215 90 261 129 68 57 99 78 105 72 4 -4 -2 -13 -13 -20 -10 -8
-41 -32 -69 -55 -27 -23 -60 -44 -72 -47 -13 -4 -23 -10 -23 -14 0 -5 -9 -12
-20 -15 -11 -3 -20 -13 -20 -21 0 -11 6 -13 23 -9 40 13 182 89 194 105 16 21
7 26 -14 8 -21 -18 -43 -31 -43 -25 0 2 14 13 31 26 24 18 33 20 45 11 11 -10
14 -9 14 4 0 9 6 16 13 16 8 0 22 9 32 20 10 12 24 19 30 16 17 -6 68 37 71
62 3 16 -1 20 -16 17 -11 -2 -23 1 -26 7 -4 7 -2 8 5 4 8 -5 10 0 7 17 -4 21
-1 25 16 22 11 -2 27 -10 36 -17 13 -12 14 -10 3 10 -8 16 -9 27 -1 42 6 11 8
24 6 29 -3 5 1 12 10 15 25 9 25 8 4 -26 -22 -37 -26 -53 -8 -42 7 5 9 2 4 -7
-4 -8 2 -3 13 10 12 12 18 27 15 32 -3 5 -1 9 4 9 5 0 16 19 25 42 9 23 20 39
23 35 5 -5 -13 -54 -33 -89 -2 -5 -2 -8 1 -8 11 0 66 102 66 123 0 13 4 27 9
32 14 16 23 65 11 65 -5 0 -10 9 -10 21 0 13 -4 18 -11 13 -16 -9 -2 46 16 66
14 16 32 110 21 110 -3 0 -6 -9 -6 -21z"/>
</g>
</svg>
